HIERARCHY
ROOT root     
{
	OFFSET 0.0000 0.0000 0.0000
	CHANNELS 6 Xposition Yposition Zposition Zrotation Yrotation Xrotation
	JOINT pelvis   
	{
		OFFSET 0.0000 0.0000 0.0000
		CHANNELS 3 Zrotation Yrotation Xrotation
		JOINT thorax   
		{
			OFFSET 0.0000 23.0750 -5.0000
			CHANNELS 3 Zrotation Yrotation Xrotation
			JOINT rclavicle
			{
				OFFSET 0.0000 28.0009 0.0000
				CHANNELS 3 Zrotation Yrotation Xrotation
				JOINT rhumerus 
				{
					OFFSET -18.5725 5.5939 0.0000
					CHANNELS 3 Zrotation Yrotation Xrotation
					JOINT rradius  
					{
						OFFSET -24.8459 0.0000 0.0000
						CHANNELS 3 Zrotation Yrotation Xrotation
						JOINT rhand    
						{
							OFFSET -24.5477 0.0000 0.0000
							CHANNELS 3 Zrotation Yrotation Xrotation
							End Site
							{
								OFFSET -8.1826 0.0000 0.0000
							}
						}
					}
				}
			}
			JOINT lclavicle
			{
				OFFSET 0.0000 28.0009 0.0000
				CHANNELS 3 Zrotation Yrotation Xrotation
				JOINT lhumerus 
				{
					OFFSET 18.5725 5.5939 0.0000
					CHANNELS 3 Zrotation Yrotation Xrotation
					JOINT lradius  
					{
						OFFSET 24.8459 0.0000 0.0000
						CHANNELS 3 Zrotation Yrotation Xrotation
						JOINT lhand    
						{
							OFFSET 24.5477 0.0000 0.0000
							CHANNELS 3 Zrotation Yrotation Xrotation
							End Site
							{
								OFFSET 8.1826 0.0000 0.0000
							}
						}
					}
				}
			}
			JOINT head     
			{
				OFFSET 0.0000 35.2030 0.0000
				CHANNELS 3 Zrotation Yrotation Xrotation
				End Site
				{
					OFFSET 0.0000 11.7343 0.0000
				}
			}
		}
		JOINT rfemur   
		{
			OFFSET -8.2817 0.0000 0.0000
			CHANNELS 3 Zrotation Yrotation Xrotation
			JOINT rtibia   
			{
				OFFSET 0.0000 -43.3627 0.0000
				CHANNELS 3 Zrotation Yrotation Xrotation
				JOINT rfoot    
				{
					OFFSET 0.0000 -38.2947 0.0000
					CHANNELS 3 Zrotation Yrotation Xrotation
					JOINT rtoes    
					{
						OFFSET 0.0000 0.0000 16.6054
						CHANNELS 3 Zrotation Yrotation Xrotation
						End Site
						{
							OFFSET 0.0000 0.0000 5.5351
						}
					}
				}
			}
		}
		JOINT lfemur   
		{
			OFFSET 8.2817 0.0000 0.0000
			CHANNELS 3 Zrotation Yrotation Xrotation
			JOINT ltibia   
			{
				OFFSET 0.0000 -43.3627 0.0000
				CHANNELS 3 Zrotation Yrotation Xrotation
				JOINT lfoot    
				{
					OFFSET 0.0000 -38.2947 0.0000
					CHANNELS 3 Zrotation Yrotation Xrotation
					JOINT ltoes    
					{
						OFFSET 0.0000 0.0000 16.6054
						CHANNELS 3 Zrotation Yrotation Xrotation
						End Site
						{
							OFFSET 0.0000 0.0000 5.5351
						}
					}
				}
			}
		}
	}
}
MOTION
Frames: 19
Frame Time: .0333333
-46.366 81.684 -8.6985 -40.0415 87.4801 -16.8788 0 -0 0 0.826111 -8.39373 21.4288 20.7754 -8.14862 1.51904e-05 59.1647 -17.0637 3.52823 8.34976e-07 64.3599 5.25404e-07 -6.6373 1.62635 -0.0942993 -14.6199 9.05153 1.06475e-05 -38.5369 -14.3005 2.88355 180 -88.1429 -180 0.888792 4.73684 0.0367997 2.68664 0.822594 -5.22307 12.2953 -9.39729 -59.4973 -0 -0 46.086 -3.06528e-06 -17.0384 4.02981 -1.23379 -5.76396e-07 -23.6133 -3.6007 11.0307 -37.4161 -0 -0 48.0613 -4.14078e-05 11.7287 -13.1694 -2.70812 -9.46641e-06 -35.0008 
-45.587 81.741 -8.5756 -37.4939 87.6114 -14.2961 0 -0 0 0.911684 -8.5476 21.4131 20.7651 -8.38133 -8.59968e-05 59.0025 -17.561 3.64128 0 64.8137 0 -6.56637 1.57435 -0.0903047 -14.5327 9.1495 -2.41699e-05 -38.0975 -14.1579 2.76178 180 -87.2375 180 0.734094 4.75304 0.0305 2.85206 0.659396 -5.31806 13.0385 -9.84309 -59.5946 -0 -0 43.2248 1.29814e-05 -17.4129 4.41807 -1.38398 1.06812e-05 -24.3765 -3.6217 11.2517 -36.8328 -0 -0 47.8775 -2.81966e-05 11.4802 -12.9298 -2.60181 -1.43738e-05 -36.2449 
-44.793 81.789 -8.4459 -34.4834 87.7165 -11.2555 0 -0 0 0.991697 -8.69306 21.4047 20.7518 -8.60148 6.39919e-05 58.8529 -18.0487 3.75436 8.6017e-07 65.303 5.51176e-07 -6.50488 1.51925 -0.0862988 -14.4677 9.25349 -2.53159e-05 -37.68 -13.9905 2.64558 180 -86.3874 -180 0.581704 4.76636 0.0242001 3.00796 0.490806 -5.42046 13.8212 -10.322 -59.6467 -0 -0 40.3906 -2.08184e-05 -17.7585 4.76061 -1.52245 9.96763e-06 -25.3427 -3.63524 11.475 -36.2322 -0 -0 47.708 -3.65304e-05 11.2179 -12.6672 -2.49032 -1.25086e-05 -37.6204 
-43.985 81.825 -8.3094 -30.8758 87.8366 -7.64179 0 -0 0 1.06534 -8.8325 21.4048 20.7377 -8.80834 -2.43682e-05 58.7181 -18.525 3.86661 8.74857e-07 65.8173 5.66155e-07 -6.44952 1.46633 -0.0825998 -14.4259 9.36399 3.41629e-05 -37.2869 -13.8029 2.53903 180 -85.5615 180 0.433904 4.77613 0.0181001 3.15154 0.319201 -5.52765 14.6348 -10.832 -59.6481 -0 -0 37.6067 1.16097e-05 -18.0335 5.07943 -1.65116 -1.78476e-05 -26.6383 -3.64026 11.6982 -35.6097 -0 -0 47.5536 5.11026e-05 10.943 -12.3877 -2.37521 -1.01931e-05 -39.1063 
-43.159 81.849 -8.167 -26.4488 87.9649 -3.23598 0 -0 0 1.12524 -8.96994 21.4137 20.7193 -9.00674 -6.00674e-05 58.6018 -18.9814 3.98343 -5.82267e-07 66.3491 -8.90665e-07 -6.40138 1.4231 -0.0796014 -14.4041 9.47661 -2.73016e-06 -36.9166 -13.5902 2.44373 180 -84.7742 -180 0.293501 4.78502 0.0123 3.28277 0.146699 -5.63506 15.4674 -11.3774 -59.5969 -0 -0 34.9078 -2.71205e-06 -18.1963 5.39379 -1.76984 -1.40547e-05 -28.3219 -3.63939 11.9144 -34.9569 -0 -0 47.4145 -4.93526e-05 10.6569 -12.1045 -2.2596 7.34371e-06 -40.6284 
-42.315 81.859 -8.0176 -21.1795 88.0604 2.00146 0 -0 0 1.1724 -9.10842 21.4315 20.6994 -9.19043 -3.5863e-05 58.5051 -19.4327 4.08914 9.08025e-07 66.9056 5.99934e-07 -6.34553 1.39064 -0.0771043 -14.3972 9.5966 1.0233e-05 -36.5783 -13.3625 2.36968 180 -84.0383 -180 0.161099 4.78847 0.0067 3.40269 -0.0270986 -5.73857 16.2956 -11.946 -59.4853 -0 -0 32.3142 -2.17899e-05 -18.2314 5.73068 -1.88377 1.36999e-05 -30.4021 -3.62861 12.1177 -34.276 -0 -0 47.2945 3.55112e-05 10.3597 -11.8195 -2.14442 -2.13099e-05 -42.2005 
-41.45 81.85 -7.8621 -14.7022 88.1768 8.40805 0 -0 0 1.19915 -9.2525 21.4561 20.6809 -9.36336 -6.5571e-05 58.4307 -19.873 4.18531 0 67.4818 0 -6.27755 1.37273 -0.0753006 -14.3999 9.72491 3.95857e-05 -36.2695 -13.1231 2.32313 180 -83.3469 180 0.0383999 4.7887 0.0016 3.51419 -0.202406 -5.83323 17.0902 -12.5327 -59.3107 -0 -0 29.863 -1.43487e-05 -18.1264 6.10142 -1.99267 2.18468e-05 -32.8 -3.61331 12.3038 -33.5629 -0 -0 47.1985 -4.25075e-05 10.0527 -11.546 -2.03207 2.52101e-05 -43.772 
-40.563 81.822 -7.7025 -6.44344 88.2533 16.5775 0 -0 0 1.19259 -9.40535 21.4878 20.657 -9.53642 5.31373e-05 58.385 -20.2926 4.28523 0 68.0541 0 -6.20361 1.37712 -0.0746016 -14.4093 9.84919 -8.32873e-06 -35.9891 -12.856 2.30432 180 -82.6949 -180 -0.0738985 4.79157 -0.00309988 3.62096 -0.3809 -5.91371 17.8251 -13.1448 -59.0822 -0 -0 27.6114 -2.37553e-05 -17.8684 6.50044 -2.09023 -3.92934e-06 -35.3453 -3.60313 12.4688 -32.8107 -0 -0 47.129 2.90799e-06 9.7353 -11.2964 -1.92476 1.50178e-05 -45.2393 
-39.653 81.772 -7.5392 3.84723 88.3488 26.7274 0 -0 0 1.15139 -9.56738 21.5212 20.628 -9.71189 -1.26535e-05 58.3688 -20.6914 4.38584 0 68.62 0 -6.12071 1.40476 -0.0750977 -14.42 9.9637 9.6616e-06 -35.7383 -12.5534 2.31661 180 -82.0843 -180 -0.176306 4.79784 -0.00740021 3.72484 -0.565594 -5.97673 18.4643 -13.7662 -58.8044 -0 -0 25.6001 7.45612e-06 -17.4784 6.91847 -2.1722 -4.75234e-06 -37.7979 -3.60185 12.6143 -32.0269 -0 -0 47.0942 -1.12147e-05 9.40446 -11.0751 -1.82233 -8.11996e-07 -46.6023 
-38.722 81.699 -7.3719 15.8861 88.3525 38.6183 0 -0 0 1.08 -9.7373 21.5478 20.5979 -9.88797 6.36028e-06 58.3809 -21.0778 4.47558 -6.82025e-07 69.1833 -9.88938e-07 -6.02085 1.44911 -0.0762 -14.4338 10.0818 -4.49052e-05 -35.5153 -12.2405 2.37189 180 -81.5258 -180 -0.269197 4.80646 -0.0113 3.82494 -0.758703 -6.02369 18.9657 -14.3672 -58.481 -0 -0 23.8536 -7.93633e-06 -17.01 7.36833 -2.24665 9.13856e-06 -40.1419 -3.60883 12.7431 -31.2214 -0 -0 47.1003 -2.41677e-06 9.05802 -10.8726 -1.72234 1.83662e-05 -47.914 
-37.774 81.603 -7.2013 28.8039 88.2808 51.3677 0 -0 0 0.982473 -9.91171 21.5614 20.567 -10.068 6.80139e-05 58.4202 -21.4453 4.55549 -7.04972e-07 69.7424 -1.01161e-06 -5.90748 1.50733 -0.0777992 -14.4524 10.2041 -2.76513e-05 -35.3171 -11.9202 2.4729 180 -81.0103 -180 -0.353998 4.81859 -0.0148999 3.91903 -0.962246 -6.05731 19.2953 -14.9239 -58.1237 -0 -0 22.404 -2.16279e-05 -16.5108 7.84268 -2.31623 -2.26355e-05 -42.2868 -3.62615 12.86 -30.408 -0 -0 47.1577 1.20641e-05 8.69047 -10.6798 -1.6226 -1.30279e-06 -49.204 
-36.812 81.484 -7.0273 41.1323 88.1295 63.5173 0 -0 0 0.867585 -10.0848 21.5527 20.529 -10.2542 -2.65927e-05 58.4882 -21.7898 4.63121 1.03481e-06 70.2839 7.28425e-07 -5.79051 1.57917 -0.0798983 -14.4794 10.3155 -7.86553e-06 -35.1404 -11.573 2.61259 180 -80.5428 -180 -0.432599 4.83681 -0.0183001 4.00189 -1.17808 -6.08211 19.4309 -15.4101 -57.7528 -0 -0 21.2945 -7.87906e-05 -16.0258 8.30238 -2.37494 -2.70082e-05 -43.8942 -3.65237 12.976 -29.6041 -0 -0 47.2752 -2.06662e-06 8.29374 -10.484 -1.51936 1.42414e-05 -50.4935 
-35.84 81.346 -6.8492 51.58 87.8915 73.7892 0 -0 0 0.750836 -10.2495 21.5141 20.4833 -10.4427 -4.13471e-05 58.5814 -22.1111 4.6965 1.05852e-06 70.8099 7.52386e-07 -5.67272 1.65788 -0.0820997 -14.5202 10.421 5.24097e-05 -34.9844 -11.2076 2.79055 180 -80.1107 -180 -0.507201 4.8594 -0.0215001 4.06611 -1.40566 -6.10753 19.3555 -15.7913 -57.3835 -0 -0 20.5402 -3.8725e-05 -15.6101 8.7278 -2.42758 -1.58723e-05 -44.8497 -3.67897 13.0987 -28.8279 -0 -0 47.4612 -7.20763e-06 7.85951 -10.2604 -1.40847 1.70824e-05 -51.8705 
-34.865 81.19 -6.6662 59.7406 87.5788 81.7877 0 -0 0 0.648727 -10.3994 21.4428 20.431 -10.6287 9.2194e-05 58.6928 -22.4034 4.74881 -1.09861e-06 71.317 -1.53124e-06 -5.56005 1.73832 -0.0844001 -14.584 10.523 -2.85474e-05 -34.847 -10.8314 3.0034 180 -79.7169 -180 -0.579694 4.88497 -0.0246995 4.10276 -1.64266 -6.14492 19.0737 -16.0457 -57.0395 -0 -0 20.1669 2.73606e-05 -15.302 9.08881 -2.47469 2.90146e-06 -45.0308 -3.69693 13.237 -28.1021 -0 -0 47.7299 -6.39127e-06 7.37837 -9.98449 -1.2862 1.26236e-05 -53.4006 
-33.892 81.02 -6.4771 65.7707 87.2402 87.6757 0 -0 0 0.578075 -10.5282 21.3394 20.3736 -10.8048 -6.27175e-06 58.816 -22.6627 4.78882 0 71.8044 0 -5.45926 1.81612 -0.086602 -14.6767 10.6229 3.12718e-05 -34.7261 -10.4463 3.24358 180 -79.3618 -180 -0.651791 4.91181 -0.0279994 4.10317 -1.88485 -6.20714 18.6123 -16.1614 -56.7517 -0 -0 20.1936 -7.30943e-06 -15.1145 9.34299 -2.5107 -1.29411e-05 -44.2504 -3.69273 13.395 -27.4402 -0 -0 48.0858 -1.15698e-05 6.8411 -9.63206 -1.14999 9.94769e-06 -55.1358 
-32.924 80.842 -6.2801 70.0446 86.9089 91.8331 0 -0 0 0.556795 -10.6316 21.2071 20.308 -10.9608 -8.55906e-06 58.9462 -22.8804 4.81408 -8.26617e-07 72.2701 -1.13212e-06 -5.37765 1.89048 -0.0888003 -14.8042 10.7101 -5.49769e-05 -34.6279 -10.0343 3.49676 180 -79.0331 -180 -0.725504 4.9386 -0.0313003 4.05946 -2.1265 -6.30536 18.0157 -16.1416 -56.5449 -0 -0 20.6267 9.89973e-05 -15.0414 9.44542 -2.5252 4.23347e-06 -42.3479 -3.65069 13.5781 -26.858 -0 -0 48.5374 6.74262e-06 6.23782 -9.18261 -0.999302 -4.3994e-06 -57.1017 
-31.965 80.658 -6.0771 72.9482 86.5804 94.6456 0 -0 0 0.584795 -10.7051 21.0575 20.2447 -11.093 -4.94643e-06 59.0693 -23.0461 4.82486 -8.51877e-07 72.7175 -1.1572e-06 -5.3136 1.95316 -0.0906026 -14.9694 10.8219 7.15683e-05 -34.5548 -9.65334 3.77422 180 -78.7561 -180 -0.799291 4.9613 -0.0345996 3.96956 -2.36215 -6.45253 17.3477 -16.0242 -56.4647 -0 -0 21.5027 3.84294e-05 -15.0248 9.31379 -2.48742 -1.55042e-05 -38.9373 -3.56726 13.7773 -26.3554 -0 -0 49.0889 4.3783e-06 5.56726 -8.6167 -0.836691 3.64882e-06 -59.3143 
-31.015 80.473 -5.8653 74.8041 86.2653 96.4319 0 -0 0 0.675295 -10.7503 20.9071 20.1787 -11.1858 -2.94536e-05 59.184 -23.1533 4.82366 1.18174e-06 73.1362 8.76591e-07 -5.27558 2.01055 -0.0925968 -15.1714 10.9217 2.80933e-05 -34.5165 -9.24224 4.04711 180 -78.5003 180 -0.875991 4.9801 -0.0380993 3.83029 -2.58436 -6.65315 16.6711 -15.8364 -56.5151 -0 -0 22.7791 -3.10645e-05 -15.0299 8.9113 -2.38169 -1.11572e-05 -33.9421 -3.4234 13.9915 -25.9314 -0 -0 49.7412 -1.5962e-07 4.82225 -7.93168 -0.666996 2.51746e-06 -61.711 
-30.075 80.291 -5.6463 75.8101 85.989 97.3801 0 -0 0 0.822264 -10.7693 20.7718 20.115 -11.2323 -6.21873e-05 59.2816 -23.1912 4.81172 -1.2736e-06 73.5187 -1.70495e-06 -5.26194 2.06138 -0.0947006 -15.4049 11.0207 -2.26704e-05 -34.5236 -8.81635 4.31448 180 -78.2706 -180 -0.954791 4.99338 -0.0415991 3.64642 -2.78812 -6.91081 16.0453 -15.628 -56.7028 -0 -0 24.4242 4.00064e-05 -15.0008 8.1931 -2.18702 -9.6972e-06 -27.2328 -3.21602 14.2046 -25.5774 -0 -0 50.4884 1.29769e-06 4.00656 -7.12718 -0.497896 -3.8929e-06 -64.2201 
